<?xml version="1.0" encoding="UTF-8" standalone="no"?>
<svg
   xmlns:dc="http://purl.org/dc/elements/1.1/"
   xmlns:cc="http://creativecommons.org/ns#"
   xmlns:rdf="http://www.w3.org/1999/02/22-rdf-syntax-ns#"
   xmlns:svg="http://www.w3.org/2000/svg"
   xmlns="http://www.w3.org/2000/svg"
   viewBox="0 0 466.66666 448"
   height="448"
   width="466.66666"
   xml:space="preserve"
   id="svg2"
   version="1.1"><metadata
     id="metadata8"><rdf:RDF><cc:Work
         rdf:about=""><dc:format>image/svg+xml</dc:format><dc:type
           rdf:resource="http://purl.org/dc/dcmitype/StillImage" /></cc:Work></rdf:RDF></metadata><defs
     id="defs6"><clipPath
       id="clipPath20"
       clipPathUnits="userSpaceOnUse"><path
         id="path18"
         d="M 0,3353.49 H 3500 V 3.48828 H 0 Z" /></clipPath></defs><g
     transform="matrix(1.3333333,0,0,-1.3333333,0,448)"
     id="g10"><g
       transform="scale(0.1)"
       id="g12"><g
         id="g14"><g
           clip-path="url(#clipPath20)"
           id="g16"><path
             id="path22"
             style="fill:#000000;fill-opacity:1;fill-rule:nonzero;stroke:none"
             d="m 0,2527.2 c 0,-118.12 95.7812,-213.9 213.949,-213.9 118.121,0 213.86,95.78 213.86,213.9 0,118.17 -213.86,364.69 -213.86,364.69 C 213.949,2891.89 0,2645.37 0,2527.2 Z" /><path
             id="path24"
             style="fill:#000000;fill-opacity:1;fill-rule:nonzero;stroke:none"
             d="m 3467.23,2077.24 c -35.86,98.21 -102.27,177.74 -176.57,240.75 l 22.39,39.02 -219.03,125.74 27.43,50.7 -912.62,492.97 -0.04,-0.04 -236.76,127.82 -798.79,67.89 -33.44,-61.84 -357.769,193.24 -534.652,-52.77 19.652,-199.02 473.75,46.75 303.989,-164.17 -38.83,-71.88 622.38,-336.21 108.36,-423.83 242.11,-130.78 342.34,42.66 464.53,-152.35 129.77,240.24 v -0.04 l 34.06,63.08 212.19,-121.79 14.8,25.74 c 38.09,-38.05 65.51,-78.13 80.32,-118.71 23.9,-65.43 16.44,-134.69 -23.13,-212.38 -91.87,-183.29 -375.66,-322.58 -843.51,-414.11 -75.16,-14.68 -152.97,-23.39 -235.36,-32.61 -250.89,-28.01 -535.27,-59.81 -727.18,-291.49 l -0.9,-1.01 C 1273.36,859.039 1244.34,627.75 1347.11,414.281 1464.3,170.762 1731.56,8.26172 2012.15,10.0195 L 2010.74,234 c -195.78,-1.211 -381.36,110.281 -461.79,277.422 -37.39,77.699 -80.36,232.348 51.56,396.019 134.22,161.519 340.47,184.609 579.18,211.249 83.24,9.34 169.29,18.94 253.47,35.39 547.07,106.99 874.46,281.52 1000.47,532.93 68.05,133.63 79.34,264.96 33.6,390.23 z m -758.79,28.36 -354.81,116.37 -253.63,22.66 32.15,59.45 113.36,209.88 529.14,-285.82 z" /></g></g></g></g></svg>